<?xml version="1.0" encoding="UTF-8"?>
<svg width="16px" height="16px" viewBox="0 0 16 16" version="1.1" xmlns="http://www.w3.org/2000/svg" xmlns:xlink="http://www.w3.org/1999/xlink">
    <!-- Generator: Sketch 53.2 (72643) - https://sketchapp.com -->
    <title>left_icon_007</title>
    <desc>Created with Sketch.</desc>
    <g id="前端" stroke="none" stroke-width="1" fill="none" fill-rule="evenodd">
        <g id="镇江港通用版" transform="translate(-34.000000, -322.000000)" fill="#FFFFFF">
            <g id="left_icon_007" transform="translate(34.000000, 322.000000)">
                <path d="M12.0768972,9.876922 C12.3458697,9.876922 12.5634654,9.66362424 12.5634654,9.40216247 C12.5634654,9.13971776 12.3458697,8.92740293 12.0768972,8.92740293 C11.8079248,8.92740293 11.5913365,9.13971776 11.5913365,9.40216247 C11.5913365,9.66362424 11.8079248,9.876922 12.0768972,9.876922 L12.0768972,9.876922 Z M12.0768972,12.7962508 C12.3458697,12.7962508 12.5634654,12.583936 12.5634654,12.3214913 C12.5634654,12.0600295 12.3458697,11.8467317 12.0768972,11.8467317 C11.8079248,11.8467317 11.5913365,12.0600295 11.5913365,12.3214913 C11.5913365,12.583936 11.8079248,12.7962508 12.0768972,12.7962508 L12.0768972,12.7962508 Z M12.0768972,6.98609843 C12.3458697,6.98609843 12.5634654,6.77280067 12.5634654,6.5113389 C12.5634654,6.24987713 12.3458697,6.03756231 12.0768972,6.03756231 C11.8079248,6.03756231 11.5913365,6.24987713 11.5913365,6.5113389 C11.5913365,6.77280067 11.8079248,6.98609843 12.0768972,6.98609843 L12.0768972,6.98609843 Z M8,5.40749842 C4.96675621,5.40749842 2.85426461,4.46584287 2.85426461,3.62051534 C2.85426461,2.77617075 4.96675621,1.8345152 8,1.8345152 C11.0332438,1.8345152 13.1467428,2.77617075 13.1467428,3.62051534 C13.1467428,4.46387699 10.9445937,5.40749842 8,5.40749842 L8,5.40749842 Z M13.1467428,6.53984413 C13.1467428,7.38320579 10.9445937,8.32682721 8,8.32682721 C4.96675621,8.32682721 2.85426461,7.38517166 2.85426461,6.53984413 L2.85426461,4.98483466 C3.90597717,5.74759531 5.83512424,6.21350839 8,6.21350839 C10.1658831,6.21350839 12.0950302,5.74759531 13.1467428,4.98483466 L13.1467428,6.53984413 Z M13.1467428,9.45917293 C13.1467428,10.3035175 10.9445937,11.246156 8,11.246156 C4.96675621,11.246156 2.85426461,10.3045005 2.85426461,9.45917293 L2.85426461,7.90416345 C3.90597717,8.6669241 5.83512424,9.13283718 8,9.13283718 C10.1658831,9.13283718 12.0950302,8.6669241 13.1467428,7.90416345 L13.1467428,9.45917293 Z M13.1467428,12.3794847 C13.1467428,13.2218634 10.9445937,14.1645019 8,14.1645019 C4.96675621,14.1645019 2.85426461,13.2238292 2.85426461,12.3794847 L2.85426461,10.8244752 C3.90597717,11.5862529 5.83512424,12.052166 8,12.052166 C10.1658831,12.052166 12.0950302,11.5862529 13.1467428,10.8244752 L13.1467428,12.3794847 Z M8,1 C4.57991941,1 2,2.12644808 2,3.62051534 L2,12.3794847 C2,13.872569 4.57991941,15 8,15 C11.421088,15 14,13.872569 14,12.3794847 L14,3.62051534 C14,2.12644808 11.421088,1 8,1 L8,1 Z" id="Fill-1"></path>
            </g>
        </g>
    </g>
</svg>