<?xml version="1.0" encoding="UTF-8"?>
<svg width="16px" height="16px" viewBox="0 0 16 16" version="1.1" xmlns="http://www.w3.org/2000/svg" xmlns:xlink="http://www.w3.org/1999/xlink">
    <!-- Generator: Sketch 53.2 (72643) - https://sketchapp.com -->
    <title>left_icon_008</title>
    <desc>Created with Sketch.</desc>
    <defs>
        <polygon id="path-1" points="1 0.9999 14.6239481 0.9999 14.6239481 14.3869 1 14.3869"></polygon>
    </defs>
    <g id="前端" stroke="none" stroke-width="1" fill="none" fill-rule="evenodd">
        <g id="镇江港通用版" transform="translate(-34.000000, -362.000000)">
            <g id="left_icon_008" transform="translate(34.000000, 362.000000)">
                <mask id="mask-2" fill="white">
                    <use xlink:href="#path-1"></use>
                </mask>
                <g id="Clip-2"></g>
                <path d="M7.8521,14.3874 C7.7001,14.3874 7.5481,14.3564 7.4091,14.2944 L1.3001,11.6434 C1.0471,11.5334 0.9311,11.2394 1.0411,10.9864 C1.1511,10.7334 1.4461,10.6164 1.6991,10.7274 L7.8061,13.3784 C7.8361,13.3914 7.8701,13.3914 7.8991,13.3784 L13.9201,10.7274 C14.1731,10.6164 14.4671,10.7304 14.5791,10.9824 C14.6901,11.2354 14.5761,11.5304 14.3241,11.6404 L8.3021,14.2924 C8.1611,14.3554 8.0071,14.3874 7.8521,14.3864 L7.8521,14.3874 Z M7.8521,11.2414 C7.7001,11.2414 7.5481,11.2104 7.4091,11.1504 L1.3001,8.4974 C1.0471,8.3884 0.9311,8.0944 1.0411,7.8414 C1.1511,7.5884 1.4461,7.4724 1.6991,7.5824 L7.8061,10.2344 C7.8361,10.2464 7.8701,10.2464 7.8991,10.2344 L13.9201,7.5824 C14.0841,7.5094 14.2741,7.5294 14.4181,7.6344 C14.5631,7.7404 14.6401,7.9144 14.6211,8.0934 C14.6011,8.2704 14.4881,8.4244 14.3241,8.4954 L8.3021,11.1474 C8.1611,11.2094 8.0071,11.2414 7.8521,11.2414 L7.8521,11.2414 Z M7.8231,7.1284 C7.8391,7.1354 7.8591,7.1354 7.8761,7.1284 L13.4181,4.6874 C13.4431,4.6764 13.4581,4.6524 13.4581,4.6254 C13.4581,4.5994 13.4431,4.5744 13.4181,4.5644 L13.4051,4.5584 L7.8721,2.0024 C7.8571,1.9974 7.8411,1.9974 7.8271,2.0024 L2.2011,4.5644 C2.1761,4.5744 2.1611,4.5984 2.1611,4.6254 C2.1601,4.6524 2.1761,4.6764 2.2011,4.6874 L7.8231,7.1284 Z M7.8491,8.1314 C7.7031,8.1314 7.5581,8.1014 7.4241,8.0434 L1.8021,5.6024 C1.4121,5.4334 1.1601,5.0494 1.1611,4.6234 C1.1621,4.1984 1.4151,3.8144 1.8061,3.6474 L7.4361,1.0824 C7.7031,0.9714 8.0011,0.9724 8.2671,1.0854 L8.2811,1.0914 L13.8181,3.6494 C14.2061,3.8184 14.4571,4.2004 14.4581,4.6234 C14.4581,5.0464 14.2091,5.4304 13.8221,5.6004 L8.2791,8.0414 C8.1431,8.1004 7.9971,8.1314 7.8491,8.1314 L7.8491,8.1314 Z" id="Fill-1" fill="#FFFFFF" mask="url(#mask-2)"></path>
            </g>
        </g>
    </g>
</svg>