<?xml version="1.0" encoding="UTF-8"?>
<svg width="16px" height="16px" viewBox="0 0 16 16" version="1.1" xmlns="http://www.w3.org/2000/svg" xmlns:xlink="http://www.w3.org/1999/xlink">
    <!-- Generator: Sketch 53.2 (72643) - https://sketchapp.com -->
    <title>left_icon_003</title>
    <desc>Created with Sketch.</desc>
    <g id="前端" stroke="none" stroke-width="1" fill="none" fill-rule="evenodd">
        <g id="镇江港通用版" transform="translate(-34.000000, -162.000000)" stroke="#FFFFFF">
            <g id="left_icon_003" transform="translate(34.000000, 162.000000)">
                <path d="M13.8638,14.0606 L2.2268,14.0606 C1.8258,14.0606 1.4998,13.7356 1.4998,13.3336 L1.4998,4.9696 C1.4998,4.5686 1.8258,4.2426 2.2268,4.2426 L13.8638,4.2426 C14.2658,4.2426 14.5918,4.5686 14.5918,4.9696 L14.5918,13.3336 C14.5918,13.7356 14.2658,14.0606 13.8638,14.0606 Z" id="Stroke-1"></path>
                <path d="M1.7837,7.4658 L14.3177,7.4658" id="Stroke-3"></path>
                <path d="M5.1401,7.4658 L5.1401,9.4788" id="Stroke-5" stroke-linecap="round"></path>
                <path d="M11.0483,7.4658 L11.0483,9.4788" id="Stroke-7" stroke-linecap="round"></path>
                <path d="M4.394,4.1748 L4.394,2.0628 C4.394,1.7518 4.646,1.4998 4.956,1.4998 L11.203,1.4998 C11.513,1.4998 11.765,1.7518 11.765,2.0628 L11.765,4.1748" id="Stroke-9" stroke-linecap="round"></path>
            </g>
        </g>
    </g>
</svg>