<?xml version="1.0" encoding="UTF-8"?>
<svg width="16px" height="16px" viewBox="0 0 16 16" version="1.1" xmlns="http://www.w3.org/2000/svg" xmlns:xlink="http://www.w3.org/1999/xlink">
    <!-- Generator: Sketch 53.2 (72643) - https://sketchapp.com -->
    <title>left_icon_012</title>
    <desc>Created with Sketch.</desc>
    <defs>
        <polygon id="path-1" points="0 -0.0002 14.1819 -0.0002 14.1819 11.4218 0 11.4218"></polygon>
    </defs>
    <g id="前端" stroke="none" stroke-width="1" fill="none" fill-rule="evenodd">
        <g id="镇江港通用版" transform="translate(-33.000000, -523.000000)">
            <g id="left_icon_012" transform="translate(34.000000, 525.000000)">
                <mask id="mask-2" fill="white">
                    <use xlink:href="#path-1"></use>
                </mask>
                <g id="Clip-2"></g>
                <path d="M7.5339,7.4688 L2.2159,7.4688 C2.0989,7.4698 1.9859,7.4228 1.9029,7.3408 C1.8199,7.2588 1.7729,7.1468 1.7729,7.0298 C1.7729,6.7868 1.9719,6.5898 2.2159,6.5898 L7.5339,6.5898 C7.7789,6.5898 7.9769,6.7868 7.9769,7.0298 C7.9769,7.1468 7.9299,7.2588 7.8459,7.3408 C7.7629,7.4228 7.6509,7.4698 7.5339,7.4688 L7.5339,7.4688 Z M7.5339,9.2258 L2.2159,9.2258 C2.0989,9.2268 1.9859,9.1808 1.9029,9.0978 C1.8199,9.0158 1.7729,8.9038 1.7729,8.7858 C1.7729,8.5438 1.9719,8.3468 2.2159,8.3468 L7.5339,8.3468 C7.7789,8.3468 7.9769,8.5438 7.9769,8.7858 C7.9769,8.9038 7.9299,9.0158 7.8459,9.0978 C7.7629,9.1798 7.6509,9.2258 7.5339,9.2258 L7.5339,9.2258 Z M11.5229,3.5138 C11.5209,3.2708 11.3229,3.0738 11.0799,3.0748 L10.1929,3.0748 C9.9489,3.0748 9.7499,3.2728 9.7499,3.5138 L9.7499,4.3928 C9.7499,4.6358 9.9489,4.8318 10.1929,4.8318 L11.0799,4.8318 C11.3249,4.8318 11.5229,4.6358 11.5229,4.3928 L11.5229,3.5138 Z M11.5229,5.7108 L9.7499,5.7108 C9.2609,5.7108 8.8639,5.3178 8.8639,4.8318 L8.8639,3.0748 C8.8639,2.5898 9.2609,2.1968 9.7499,2.1968 L11.5229,2.1968 C12.0129,2.1968 12.4089,2.5898 12.4089,3.0748 L12.4089,4.8318 C12.4089,5.3178 12.0129,5.7108 11.5229,5.7108 L11.5229,5.7108 Z M13.2959,1.7578 C13.2959,1.2718 12.8979,0.8788 12.4089,0.8788 L1.7729,0.8788 C1.2829,0.8788 0.8869,1.2728 0.8869,1.7568 L0.8869,9.6638 C0.8869,10.1508 1.2829,10.5428 1.7729,10.5428 L12.4089,10.5428 C12.8979,10.5428 13.2959,10.1498 13.2959,9.6638 L13.2959,1.7568 L13.2959,1.7578 Z M12.4089,11.4218 L1.7729,11.4218 C0.7939,11.4218 -0.0001,10.6348 -0.0001,9.6638 L-0.0001,1.7568 C-0.0001,0.7858 0.7939,-0.0002 1.7729,-0.0002 L12.4089,-0.0002 C13.3879,-0.0002 14.1819,0.7858 14.1819,1.7568 L14.1819,9.6638 C14.1819,10.6348 13.3879,11.4218 12.4089,11.4218 L12.4089,11.4218 Z" id="Fill-1" fill="#FFFFFF" mask="url(#mask-2)"></path>
            </g>
        </g>
    </g>
</svg>