<?xml version="1.0" encoding="UTF-8"?>
<svg width="16px" height="16px" viewBox="0 0 16 16" version="1.1" xmlns="http://www.w3.org/2000/svg" xmlns:xlink="http://www.w3.org/1999/xlink">
    <!-- Generator: Sketch 53.2 (72643) - https://sketchapp.com -->
    <title>left_icon_002</title>
    <desc>Created with Sketch.</desc>
    <g id="前端" stroke="none" stroke-width="1" fill="none" fill-rule="evenodd" stroke-linecap="round">
        <g id="镇江港通用版" transform="translate(-34.000000, -121.000000)" stroke="#FFFFFF">
            <g id="left_icon_002" transform="translate(34.000000, 121.000000)">
                <path d="M6.031,2.542 C5.845,2.516 5.658,2.502 5.47,2.502 C5.051,2.502 4.638,2.566 4.243,2.694 C3.643,2.888 3.111,3.213 2.662,3.662 C1.113,5.211 1.113,7.732 2.662,9.281 L7.632,14.251 C7.718,14.338 7.834,14.386 7.957,14.386 C8.08,14.386 8.194,14.338 8.282,14.251 L13.251,9.281 C14.802,7.732 14.801,5.211 13.252,3.662 C12.503,2.912 11.505,2.5 10.442,2.5 C9.38,2.5 8.382,2.913 7.633,3.662 L4.859,6.435" id="Stroke-1"></path>
                <path d="M10.4929,4.3618 C11.6389,4.3618 12.5679,5.2908 12.5679,6.4378" id="Stroke-3"></path>
            </g>
        </g>
    </g>
</svg>