<?xml version="1.0" encoding="UTF-8"?>
<svg width="16px" height="16px" viewBox="0 0 16 16" version="1.1" xmlns="http://www.w3.org/2000/svg" xmlns:xlink="http://www.w3.org/1999/xlink">
    <!-- Generator: Sketch 53.2 (72643) - https://sketchapp.com -->
    <title>left_icon_001</title>
    <desc>Created with Sketch.</desc>
    <g id="前端" stroke="none" stroke-width="1" fill="none" fill-rule="evenodd">
        <g id="镇江港通用版" transform="translate(-33.000000, -82.000000)" fill="#222222">
            <g id="left_icon_001" transform="translate(33.000000, 82.000000)">
                <path d="M7.99623805,1 L7.99333553,1 L7.99333553,1 C7.98656299,1 7.00067403,1 6.40565764,1.73325713 L1.32818438,7.51862561 C1.11339798,7.75161377 0.995362205,8.06327327 1.00019974,8.38703604 C0.994394698,8.71685046 1.11533299,9.03657881 1.33592443,9.2736014 C1.55651588,9.51062399 1.85837786,9.64678591 2.17571993,9.65082033 L2.45823178,9.65082033 L2.45823178,14.3842119 C2.45823178,15.2738031 3.13451871,16 3.96270414,16 L6.62431407,16 L6.62528157,16 C6.76073246,16 6.89037831,15.9425094 6.98519393,15.8416487 C7.07904205,15.7397795 7.13031988,15.6036175 7.12644986,15.461404 L7.12644986,10.8218128 L8.67349249,10.8218128 L8.67349249,15.461404 C8.66478493,15.7498655 8.88150635,15.9899139 9.15724565,15.9989914 L9.17466077,16 L11.8778735,16 C12.7060589,16 13.3813783,15.2738031 13.3813783,14.3842119 L13.3813783,9.65082033 L13.8177237,9.65082033 L13.8322363,9.65082033 C14.1370008,9.65082033 14.4301552,9.52474449 14.6459091,9.29982517 C15.1093446,8.80863367 15.1190197,8.0239376 14.6681617,7.52064282 C14.6681617,7.52064282 9.53844315,1.68080958 9.50361292,1.63743948 C9.09919527,1.22996235 8.55932674,1.00100861 7.99623805,1 M7.99430304,2.00860678 C8.30003504,2.00860678 8.59028694,2.12863098 8.8128134,2.34447283 C8.9811595,2.53711673 9.79676734,3.46806079 13.9609146,8.20851264 C14.0586328,8.31744217 14.0557302,8.48688811 13.9628496,8.58674018 C13.9270519,8.62305003 13.8815791,8.64322216 13.8177237,8.64322216 L13.3813783,8.64322216 L12.413872,8.64322216 L12.413872,9.65082033 L12.413872,14.3842119 C12.413872,14.7190694 12.1729629,14.9913932 11.8778735,14.9913932 L9.64099882,14.9913932 L9.64099882,10.8218128 L9.64099882,9.81320602 L8.67349249,9.81320602 L7.12644986,9.81320602 L6.15894352,9.81320602 L6.15894352,10.8218128 L6.15894352,14.9913932 L3.96270414,14.9913932 C3.6666472,14.9913932 3.42573812,14.7190694 3.42573812,14.3842119 L3.42573812,9.65082033 L3.42573812,8.64322216 L2.45823178,8.64322216 L2.18829752,8.64322216 C2.12927963,8.64221356 2.07122925,8.61598978 2.03059398,8.57161108 C1.98995872,8.52723238 1.96673857,8.46671598 1.96770607,8.36988973 C1.96673857,8.31340775 1.9870562,8.25894298 2.04220406,8.19943518 L7.14386497,2.38481711 C7.43121435,2.03180473 7.99623805,2.00860678 7.99333553,2.00860678 L7.99430304,2.00860678" id="Fill-1"></path>
            </g>
        </g>
    </g>
</svg>