<?xml version="1.0" encoding="UTF-8"?>
<svg width="16px" height="16px" viewBox="0 0 16 16" version="1.1" xmlns="http://www.w3.org/2000/svg" xmlns:xlink="http://www.w3.org/1999/xlink">
    <!-- Generator: Sketch 53.2 (72643) - https://sketchapp.com -->
    <title>left_icon_009</title>
    <desc>Created with Sketch.</desc>
    <defs>
        <polygon id="path-1" points="0.0002 0.607 11.1152 0.607 11.1152 13.0385 0.0002 13.0385"></polygon>
        <polygon id="path-3" points="0.515245828 0.0581283863 11.4784 0.0581283863 11.4784 8 0.515245828 8"></polygon>
    </defs>
    <g id="前端" stroke="none" stroke-width="1" fill="none" fill-rule="evenodd">
        <g id="镇江港通用版" transform="translate(-34.000000, -404.000000)">
            <g id="left_icon_009" transform="translate(34.000000, 404.000000)">
                <g id="分组" transform="translate(1.000000, 0.393300)">
                    <mask id="mask-2" fill="white">
                        <use xlink:href="#path-1"></use>
                    </mask>
                    <g id="Clip-2"></g>
                    <path d="M1.3892,1.5335 L9.7262,1.5335 C9.9812,1.5335 10.1892,1.7415 10.1892,1.9965 L10.1892,3.6225 C10.1282,3.5935 10.0602,3.5715 9.9872,3.5715 L1.1272,3.5715 C1.0552,3.5715 0.9882,3.5925 0.9262,3.6225 L0.9262,1.9965 C0.9262,1.7415 1.1342,1.5335 1.3892,1.5335 M6.2032,12.1125 L1.3892,12.1125 C1.1342,12.1125 0.9262,11.9035 0.9262,11.6485 L0.9262,4.4475 C0.9882,4.4775 1.0542,4.4985 1.1272,4.4985 L9.9872,4.4985 C10.0602,4.4985 10.1282,4.4775 10.1892,4.4475 L10.1892,6.8235 C10.1892,7.0795 10.3962,7.2865 10.6522,7.2865 C10.9082,7.2865 11.1152,7.0795 11.1152,6.8235 L11.1152,1.9965 C11.1152,1.2295 10.4922,0.6065 9.7262,0.6065 L1.3892,0.6065 C0.6232,0.6065 0.0002,1.2295 0.0002,1.9965 L0.0002,11.6485 C0.0002,12.4155 0.6232,13.0385 1.3892,13.0385 L6.2032,13.0385 C6.4592,13.0385 6.6662,12.8315 6.6662,12.5755 C6.6662,12.3195 6.4592,12.1125 6.2032,12.1125" id="Fill-1" fill="#FFFFFF" mask="url(#mask-2)"></path>
                </g>
                <g id="分组" transform="translate(3.000000, 6.393300)">
                    <mask id="mask-4" fill="white">
                        <use xlink:href="#path-3"></use>
                    </mask>
                    <g id="Clip-4"></g>
                    <path d="M1.1944,0.3635 L0.5424,2.1845 C0.4564,2.4265 0.5814,2.6905 0.8224,2.7765 C0.8744,2.7955 0.9264,2.8035 0.9784,2.8035 C1.1684,2.8035 1.3464,2.6865 1.4144,2.4975 L2.0664,0.6755 C2.1524,0.4345 2.0274,0.1705 1.7864,0.0845 C1.5474,0.0005 1.2804,0.1235 1.1944,0.3635 L1.1944,0.3635 Z M10.5524,7.0735 L9.1154,7.0735 L9.1154,4.3345 C9.1154,4.0785 8.9084,3.8715 8.6524,3.8715 C8.3964,3.8715 8.1894,4.0785 8.1894,4.3345 L8.1894,7.0735 L6.7524,7.0735 L6.7524,4.9155 C6.7524,3.8675 7.6044,3.0155 8.6524,3.0155 C9.7004,3.0155 10.5524,3.8675 10.5524,4.9155 L10.5524,7.0735 Z M8.6524,2.0895 C7.0934,2.0895 5.8254,3.3565 5.8254,4.9155 L5.8254,8.0005 L11.4784,8.0005 L11.4784,4.9155 C11.4784,3.3565 10.2114,2.0895 8.6524,2.0895 L8.6524,2.0895 Z" id="Fill-3" fill="#FFFFFF" mask="url(#mask-4)"></path>
                </g>
            </g>
        </g>
    </g>
</svg>