<?xml version="1.0" encoding="UTF-8"?>
<svg width="16px" height="16px" viewBox="0 0 16 16" version="1.1" xmlns="http://www.w3.org/2000/svg" xmlns:xlink="http://www.w3.org/1999/xlink">
    <!-- Generator: Sketch 53.2 (72643) - https://sketchapp.com -->
    <title>left_icon_005</title>
    <desc>Created with Sketch.</desc>
    <g id="前端" stroke="none" stroke-width="1" fill="none" fill-rule="evenodd" stroke-linecap="round" stroke-linejoin="round">
        <g id="镇江港通用版" transform="translate(-34.000000, -243.000000)" stroke="#FFFFFF">
            <g id="left_icon_005" transform="translate(34.000000, 243.000000)">
                <path d="M1.5002,8.1655 C1.5002,11.8625 4.4692,14.8315 8.1652,14.8315 C11.8622,14.8315 14.8312,11.8625 14.8312,8.1655 C14.8312,4.4695 11.8622,1.4995 8.1652,1.4995 C7.8022,1.4995 7.5602,1.8025 7.5602,2.1055 L7.5602,3.6215" id="Stroke-1"></path>
                <path d="M9.4387,6.8931 C8.7107,6.1661 3.6217,3.6211 3.6217,3.6211 C3.6217,3.6211 6.1667,8.7111 6.8927,9.4381 C7.6207,10.1651 8.7717,10.1651 9.4387,9.4381 C10.1657,8.7111 10.1657,7.6201 9.4387,6.8931 Z" id="Stroke-3"></path>
            </g>
        </g>
    </g>
</svg>