<?xml version="1.0" encoding="UTF-8"?>
<svg width="16px" height="16px" viewBox="0 0 16 16" version="1.1" xmlns="http://www.w3.org/2000/svg" xmlns:xlink="http://www.w3.org/1999/xlink">
    <!-- Generator: Sketch 53.2 (72643) - https://sketchapp.com -->
    <title>left_icon_014</title>
    <desc>Created with Sketch.</desc>
    <defs>
        <polygon id="path-1" points="0 0.0001 14.6096 0.0001 14.6096 14.5941 0 14.5941"></polygon>
    </defs>
    <g id="前端" stroke="none" stroke-width="1" fill="none" fill-rule="evenodd">
        <g id="镇江港通用版" transform="translate(-33.000000, -603.000000)">
            <g id="left_icon_014" transform="translate(34.000000, 604.000000)">
                <mask id="mask-2" fill="white">
                    <use xlink:href="#path-1"></use>
                </mask>
                <g id="Clip-2"></g>
                <path d="M7.0056,10.0281 L5.0616,8.0841 L8.3446,4.8011 L10.2886,6.7461 L7.0056,10.0281 Z M14.6096,7.3041 C14.6096,3.2741 11.3276,0.0001 7.3056,0.0001 C3.2826,0.0001 -0.0004,3.2581 -0.0004,7.2891 C-0.0004,11.3191 3.2826,14.5941 7.3056,14.5941 C7.8166,14.5941 8.3356,14.5471 8.8236,14.4281 C9.0916,14.3741 9.2576,14.1141 9.2016,13.8461 C9.1476,13.5791 8.8876,13.4131 8.6196,13.4681 C8.1866,13.5631 7.7456,13.6101 7.2966,13.6101 C3.8176,13.6101 0.9846,10.7841 0.9846,7.2971 C0.9846,3.8091 3.8336,0.9921 7.3136,0.9921 C10.7916,0.9921 13.6256,3.8261 13.6256,7.3041 C13.6256,8.6941 13.1476,10.0311 12.3086,11.1271 L9.8166,8.6351 C9.8126,8.6321 9.8076,8.6311 9.8036,8.6271 L11.0606,7.3681 C11.4056,7.0211 11.4056,6.4631 11.0606,6.1161 L8.9736,4.0301 C8.8006,3.8651 8.5876,3.7701 8.3446,3.7701 C8.1006,3.7701 7.8796,3.8651 7.7146,4.0301 L4.2896,7.4551 C4.1246,7.6281 4.0296,7.8401 4.0296,8.0841 C4.0296,8.3281 4.1246,8.5491 4.2896,8.7141 L6.3756,10.7991 C6.5496,10.9651 6.7696,11.0591 7.0056,11.0591 C7.2416,11.0591 7.4626,10.9651 7.6356,10.7991 L9.1156,9.3161 C9.1186,9.3201 9.1196,9.3251 9.1236,9.3281 L11.9816,12.1851 C12.0746,12.2801 12.2006,12.3271 12.3266,12.3271 C12.4086,12.3271 12.4866,12.2991 12.5606,12.2601 C12.6456,12.2351 12.7276,12.1951 12.7916,12.1231 C13.9646,10.7921 14.6096,9.0841 14.6096,7.3041 L14.6096,7.3041 Z" id="Fill-1" fill="#FFFFFF" mask="url(#mask-2)"></path>
            </g>
        </g>
    </g>
</svg>