<?xml version="1.0" encoding="UTF-8"?>
<svg width="16px" height="16px" viewBox="0 0 16 16" version="1.1" xmlns="http://www.w3.org/2000/svg" xmlns:xlink="http://www.w3.org/1999/xlink">
    <!-- Generator: Sketch 53.2 (72643) - https://sketchapp.com -->
    <title>left_icon_010</title>
    <desc>Created with Sketch.</desc>
    <defs>
        <polygon id="path-1" points="0 0 13.127 0 13.127 12.1937 0 12.1937"></polygon>
    </defs>
    <g id="前端" stroke="none" stroke-width="1" fill="none" fill-rule="evenodd">
        <g id="镇江港通用版" transform="translate(-34.000000, -442.000000)">
            <g id="left_icon_010" transform="translate(35.000000, 444.000000)">
                <mask id="mask-2" fill="white">
                    <use xlink:href="#path-1"></use>
                </mask>
                <g id="Clip-2"></g>
                <path d="M12.189,11.2557 L7.033,11.2557 L7.033,8.5757 C8.203,8.3557 9.09,7.3267 9.09,6.0947 C9.09,4.8607 8.203,3.8337 7.033,3.6127 L7.033,0.9387 L12.189,0.9387 L12.189,11.2557 Z M0.938,0.9387 L6.094,0.9387 L6.094,3.6127 C4.924,3.8337 4.037,4.8607 4.037,6.0947 C4.037,7.3267 4.924,8.3557 6.094,8.5757 L6.094,11.2557 L0.938,11.2557 L0.938,0.9387 Z M6.564,7.6827 C5.687,7.6817 4.976,6.9717 4.975,6.0947 C4.976,5.2177 5.687,4.5067 6.564,4.5057 C7.441,4.5067 8.151,5.2177 8.152,6.0947 C8.151,6.9717 7.44,7.6817 6.564,7.6827 L6.564,7.6827 Z M12.189,-0.0003 L0.938,-0.0003 C0.42,-0.0003 0,0.4197 0,0.9387 L0,11.2557 C0,11.7747 0.42,12.1937 0.938,12.1937 L12.189,12.1937 C12.708,12.1937 13.127,11.7747 13.127,11.2557 L13.127,0.9387 C13.127,0.4197 12.708,-0.0003 12.189,-0.0003 L12.189,-0.0003 Z" id="Fill-1" fill="#FFFFFF" mask="url(#mask-2)"></path>
            </g>
        </g>
    </g>
</svg>