<?xml version="1.0" encoding="UTF-8"?>
<svg width="16px" height="16px" viewBox="0 0 16 16" version="1.1" xmlns="http://www.w3.org/2000/svg" xmlns:xlink="http://www.w3.org/1999/xlink">
    <!-- Generator: Sketch 53.2 (72643) - https://sketchapp.com -->
    <title>left_icon_013</title>
    <desc>Created with Sketch.</desc>
    <defs>
        <polygon id="path-1" points="0 0.0002 13.813 0.0002 13.813 12.6738 0 12.6738"></polygon>
    </defs>
    <g id="前端" stroke="none" stroke-width="1" fill="none" fill-rule="evenodd">
        <g id="镇江港通用版" transform="translate(-34.000000, -562.000000)">
            <g id="left_icon_013" transform="translate(35.000000, 564.000000)">
                <mask id="mask-2" fill="white">
                    <use xlink:href="#path-1"></use>
                </mask>
                <g id="Clip-2"></g>
                <path d="M3.0958,7.3322 L5.7628,9.9992 C5.9108,10.1472 5.9108,10.3872 5.7628,10.5352 C5.6148,10.6842 5.3748,10.6842 5.2268,10.5442 L2.5508,7.8682 C2.4028,7.7202 2.4028,7.4802 2.5428,7.3322 L2.5508,7.3232 C2.6998,7.1832 2.9478,7.1832 3.0958,7.3322 L3.0958,7.3322 Z M5.7628,7.8772 L3.0958,10.5442 C2.9478,10.6922 2.7078,10.6922 2.5598,10.5522 L2.5508,10.5442 C2.4028,10.3952 2.4028,10.1552 2.5428,10.0072 L2.5508,9.9992 L5.2268,7.3322 C5.3748,7.1832 5.6148,7.1832 5.7628,7.3232 L5.7718,7.3322 C5.9108,7.4882 5.9108,7.7202 5.7628,7.8772 L5.7628,7.8772 Z M4.5408,2.1302 L4.5408,5.9032 C4.5328,6.1182 4.3598,6.2832 4.1448,6.2742 C3.9388,6.2672 3.7738,6.1022 3.7738,5.9032 L3.7738,2.1302 C3.7738,1.9152 3.9468,1.7502 4.1538,1.7502 C4.3598,1.7502 4.5328,1.9152 4.5328,2.1222 L4.5328,2.1302 L4.5408,2.1302 Z M6.0438,4.3932 L2.2788,4.3932 C2.0648,4.3932 1.8998,4.2192 1.8998,4.0132 C1.8998,3.7982 2.0728,3.6332 2.2788,3.6332 L6.0438,3.6332 C6.2588,3.6332 6.4238,3.8072 6.4238,4.0132 C6.4318,4.2192 6.2588,4.3932 6.0438,4.3932 L6.0438,4.3932 Z M11.6168,10.0232 L8.3148,10.0232 C8.0998,10.0232 7.9348,9.8502 7.9348,9.6442 C7.9348,9.4292 8.1078,9.2642 8.3148,9.2642 L11.6168,9.2642 C11.8318,9.2642 11.9968,9.4372 11.9968,9.6442 C11.9968,9.8502 11.8318,10.0232 11.6248,10.0232 L11.6168,10.0232 Z M11.6168,8.6282 L8.3148,8.6282 C8.0998,8.6282 7.9348,8.4552 7.9348,8.2482 C7.9348,8.0332 8.1078,7.8682 8.3148,7.8682 L11.6168,7.8682 C11.8318,7.8682 11.9968,8.0422 11.9968,8.2482 C11.9968,8.4552 11.8318,8.6282 11.6248,8.6282 L11.6168,8.6282 Z M11.6168,4.3932 L8.3148,4.3932 C8.0998,4.3932 7.9348,4.2192 7.9348,4.0132 C7.9348,3.8072 8.1078,3.6332 8.3148,3.6332 L11.6168,3.6332 C11.8318,3.6332 11.9968,3.8072 11.9968,4.0132 C11.9968,4.2192 11.8318,4.3932 11.6248,4.3932 L11.6168,4.3932 Z M13.0448,1.4532 L13.0448,11.2282 C13.0448,11.6012 12.7408,11.9062 12.3678,11.9062 L1.4528,11.9062 C1.0808,11.9062 0.7768,11.6012 0.7768,11.2282 L0.7768,1.4532 C0.7768,1.0812 1.0808,0.7762 1.4528,0.7762 L12.3608,0.7762 C12.7408,0.7762 13.0448,1.0812 13.0448,1.4532 L13.0448,1.4532 Z M12.6738,0.0002 L1.1308,0.0002 C0.5038,0.0002 -0.0002,0.5122 -0.0002,1.1312 L-0.0002,11.5432 C-0.0002,12.1702 0.5118,12.6742 1.1308,12.6742 L12.6818,12.6742 C13.3098,12.6742 13.8138,12.1622 13.8138,11.5432 L13.8138,1.1402 C13.8048,0.5122 13.3008,0.0002 12.6738,0.0002 L12.6738,0.0002 Z" id="Fill-1" fill="#FFFFFF" mask="url(#mask-2)"></path>
            </g>
        </g>
    </g>
</svg>