<?xml version="1.0" encoding="UTF-8"?>
<svg width="16px" height="16px" viewBox="0 0 16 16" version="1.1" xmlns="http://www.w3.org/2000/svg" xmlns:xlink="http://www.w3.org/1999/xlink">
    <!-- Generator: Sketch 53.2 (72643) - https://sketchapp.com -->
    <title>left_icon_004</title>
    <desc>Created with Sketch.</desc>
    <defs>
        <polygon id="path-1" points="0.5457 0.363 9.637 0.363 9.637 14 0.5457 14"></polygon>
        <polygon id="path-3" points="0 0.3396 11.0799 0.3396 11.0799 6.0226 0 6.0226"></polygon>
    </defs>
    <g id="前端" stroke="none" stroke-width="1" fill="none" fill-rule="evenodd">
        <g id="镇江港通用版" transform="translate(-34.000000, -201.000000)">
            <g id="left_icon_004" transform="translate(34.000000, 201.000000)">
                <g id="分组" transform="translate(1.000000, 0.000000)">
                    <g transform="translate(4.000000, 0.637400)">
                        <mask id="mask-2" fill="white">
                            <use xlink:href="#path-1"></use>
                        </mask>
                        <g id="Clip-2"></g>
                        <path d="M9.4717,9.1964 L7.2387,6.9484 C7.0177,6.7264 6.6567,6.7264 6.4357,6.9484 C6.2147,7.1704 6.2147,7.5334 6.4357,7.7564 L8.2687,9.6004 L6.4357,11.4454 C6.2147,11.6684 6.2147,12.0314 6.4357,12.2534 C6.6567,12.4754 7.0177,12.4754 7.2387,12.2534 L9.4717,10.0054 C9.6927,9.7824 9.6927,9.4194 9.4717,9.1964 M1.5137,3.5854 L3.3457,1.7404 L5.1787,3.5854 C5.3997,3.8074 5.7597,3.8074 5.9807,3.5854 C6.2007,3.3634 6.2007,3.0004 5.9807,2.7784 L3.7467,0.5294 C3.5267,0.3074 3.1647,0.3074 2.9457,0.5294 L0.7107,2.7784 C0.4907,3.0004 0.4907,3.3634 0.7107,3.5854 C0.9317,3.8074 1.2927,3.8074 1.5137,3.5854 M3.3457,10.9464 C3.0347,10.9464 2.7787,11.2034 2.7787,11.5174 L2.7787,13.4284 C2.7787,13.7434 3.0347,14.0004 3.3457,14.0004 C3.6587,14.0004 3.9127,13.7434 3.9127,13.4284 L3.9127,11.5174 C3.9127,11.2034 3.6587,10.9464 3.3457,10.9464" id="Fill-1" fill="#FFFFFF" mask="url(#mask-2)"></path>
                    </g>
                    <path d="M4.5333,11.5682 C4.2273,11.5682 3.9773,11.8272 3.9773,12.1422 L3.9773,14.0632 C3.9773,14.3792 4.2273,14.6372 4.5333,14.6372 C4.8403,14.6372 5.0903,14.3792 5.0903,14.0632 L5.0903,12.1422 C5.0903,11.8272 4.8403,11.5682 4.5333,11.5682 M6.8433,3.8472 L6.8433,8.1792 C6.8433,8.4952 7.0933,8.7532 7.3993,8.7532 C7.7053,8.7532 7.9553,8.4952 7.9553,8.1792 L7.9553,3.8472 C7.9553,3.5312 7.7053,3.2732 7.3993,3.2732 C7.0933,3.2732 6.8433,3.5312 6.8433,3.8472" id="Fill-3" fill="#FFFFFF"></path>
                    <g transform="translate(0.000000, 4.637400)">
                        <mask id="mask-4" fill="white">
                            <use xlink:href="#path-3"></use>
                        </mask>
                        <g id="Clip-6"></g>
                        <path d="M10.5059,6.0226 C10.8209,6.0226 11.0799,5.7666 11.0799,5.4546 C11.0799,5.1416 10.8209,4.8856 10.5059,4.8856 L2.8739,4.8856 C1.9219,4.8856 1.1499,4.1226 1.1499,3.1816 C1.1499,2.2396 1.9219,1.4766 2.8739,1.4766 C3.8269,1.4766 4.5999,2.2396 4.5999,3.1816 C4.5999,3.4956 4.8569,3.7496 5.1739,3.7496 C5.4909,3.7496 5.7489,3.4956 5.7489,3.1816 C5.7489,1.6116 4.4619,0.3396 2.8739,0.3396 C1.2869,0.3396 -0.0001,1.6126 -0.0001,3.1816 C-0.0001,4.7506 1.2869,6.0226 2.8739,6.0226 L10.5059,6.0226 Z" id="Fill-5" fill="#FFFFFF" mask="url(#mask-4)"></path>
                    </g>
                </g>
            </g>
        </g>
    </g>
</svg>