<?xml version="1.0" encoding="UTF-8"?>
<svg width="16px" height="16px" viewBox="0 0 16 16" version="1.1" xmlns="http://www.w3.org/2000/svg" xmlns:xlink="http://www.w3.org/1999/xlink">
    <!-- Generator: Sketch 53.2 (72643) - https://sketchapp.com -->
    <title>left_icon_011</title>
    <desc>Created with Sketch.</desc>
    <defs>
        <polygon id="path-1" points="0 0 12.538 0 12.538 13.5488 0 13.5488"></polygon>
    </defs>
    <g id="前端" stroke="none" stroke-width="1" fill="none" fill-rule="evenodd">
        <g id="镇江港通用版" transform="translate(-34.000000, -483.000000)">
            <g id="left_icon_011" transform="translate(35.000000, 484.000000)">
                <mask id="mask-2" fill="white">
                    <use xlink:href="#path-1"></use>
                </mask>
                <g id="Clip-2"></g>
                <path d="M11.9542,12.457 L8.1122,12.457 C7.8362,12.457 7.6122,12.681 7.6122,12.957 C7.6122,13.233 7.8362,13.457 8.1122,13.457 L11.9542,13.457 C12.2302,13.457 12.4542,13.233 12.4542,12.957 C12.4542,12.681 12.2302,12.457 11.9542,12.457 M11.9542,10.045 L8.1122,10.045 C7.8362,10.045 7.6122,10.269 7.6122,10.545 C7.6122,10.821 7.8362,11.045 8.1122,11.045 L11.9542,11.045 C12.2302,11.045 12.4542,10.821 12.4542,10.545 C12.4542,10.269 12.2302,10.045 11.9542,10.045 M12.5382,4.669 C12.5382,4.53 12.4762,4.4 12.3682,4.312 L7.1722,0.102 C7.0902,0.036 6.9882,0 6.8852,0 C6.8122,0 6.7402,0.018 6.6772,0.051 C6.5222,0.127 6.4272,0.283 6.4272,0.457 L6.4272,2.431 L6.3702,2.488 L6.3242,2.497 C5.1652,2.717 4.1572,3.093 3.3282,3.614 C2.4922,4.14 1.8062,4.837 1.2872,5.687 C0.7602,6.552 0.3912,7.606 0.1892,8.821 C-0.0168,10.067 -0.0548,11.524 0.0752,13.152 C0.0942,13.375 0.2832,13.549 0.5062,13.549 L0.5462,13.549 C0.7822,13.528 0.9582,13.319 0.9392,13.084 C0.8142,11.525 0.8502,10.14 1.0442,8.965 C1.2262,7.859 1.5572,6.907 2.0262,6.137 C2.9282,4.657 4.3872,3.744 6.4862,3.345 L6.6832,3.307 C7.0342,3.239 7.2902,2.931 7.2902,2.573 L7.2902,1.311 L11.3842,4.714 L7.2922,8.03 L7.2922,6.722 C7.2922,6.52 7.2022,6.331 7.0452,6.202 C6.9272,6.105 6.7782,6.052 6.6272,6.052 C6.5812,6.052 6.5352,6.057 6.4902,6.066 C5.9822,6.171 5.4702,6.467 5.3242,6.556 C5.1222,6.682 5.0592,6.948 5.1842,7.149 C5.2652,7.277 5.4012,7.353 5.5522,7.353 C5.6322,7.353 5.7102,7.331 5.7792,7.288 C5.8702,7.233 6.1032,7.103 6.4272,7.061 L6.4272,8.88 C6.4272,9.054 6.5232,9.211 6.6772,9.29 C6.7452,9.323 6.8152,9.34 6.8852,9.34 C6.9872,9.34 7.0892,9.304 7.1712,9.237 L12.3682,5.024 C12.4762,4.936 12.5382,4.808 12.5382,4.669" id="Fill-1" fill="#FFFFFF" mask="url(#mask-2)"></path>
            </g>
        </g>
    </g>
</svg>