<?xml version="1.0" encoding="UTF-8"?>
<svg width="16px" height="16px" viewBox="0 0 16 16" version="1.1" xmlns="http://www.w3.org/2000/svg" xmlns:xlink="http://www.w3.org/1999/xlink">
    <!-- Generator: Sketch 53.2 (72643) - https://sketchapp.com -->
    <title>left_icon_006</title>
    <desc>Created with Sketch.</desc>
    <g id="前端" stroke="none" stroke-width="1" fill="none" fill-rule="evenodd">
        <g id="镇江港通用版" transform="translate(-34.000000, -282.000000)" fill="#FFFFFF">
            <g id="left_icon_006" transform="translate(34.000000, 282.000000)">
                <path d="M10.9199,7.6402 L7.6039,5.6772 C7.5299,5.6332 7.4489,5.6112 7.3679,5.6112 C7.2869,5.6112 7.2069,5.6332 7.1329,5.6772 L3.8019,7.6252 L3.8019,5.0522 L10.9199,5.0522 L10.9199,7.6402 Z M7.3319,10.8832 C7.5889,10.8832 7.7949,10.6772 7.7949,10.4202 L7.7949,6.8682 L11.8319,9.2582 C11.9129,9.3022 11.9419,9.3982 11.9049,9.4862 L10.3689,12.9202 C9.8989,13.0082 9.4489,13.1702 9.0159,13.3322 C8.4349,13.5452 7.8829,13.7512 7.3469,13.7512 C6.8099,13.7512 6.3099,13.5452 5.7799,13.3252 C5.4119,13.1702 5.0369,13.0162 4.6329,12.9272 L2.8459,9.4642 C2.8019,9.3832 2.8309,9.2802 2.9119,9.2292 L6.8609,6.9122 L6.8609,10.4122 C6.8609,10.6702 7.0739,10.8832 7.3319,10.8832 L7.3319,10.8832 Z M5.9929,4.1252 L8.7279,4.1252 L8.7279,2.9632 L5.9929,2.9632 L5.9929,4.1252 Z M14.2359,13.7582 C13.5669,13.7582 13.1189,13.5452 12.6409,13.3172 C12.2659,13.1412 11.8839,12.9572 11.4049,12.8832 L12.7589,9.8612 C12.9859,9.3462 12.7959,8.7432 12.3109,8.4492 L11.8549,8.1772 L11.8549,4.5742 C11.8549,4.3162 11.6489,4.1102 11.3909,4.1102 L9.6699,4.1102 L9.6699,2.4932 C9.6699,2.2352 9.4639,2.0292 9.2069,2.0292 L7.8389,2.0292 L7.8389,1.4632 C7.8389,1.2052 7.6329,1.0002 7.3759,1.0002 C7.1179,1.0002 6.9119,1.2052 6.9119,1.4632 L6.9119,2.0292 L5.5299,2.0292 C5.2729,2.0292 5.0659,2.2352 5.0659,2.4932 L5.0659,4.1182 L3.3389,4.1182 C3.0809,4.1182 2.8749,4.3242 2.8749,4.5812 L2.8749,8.1702 L2.4489,8.4202 C1.9409,8.7142 1.7579,9.3612 2.0229,9.8832 L3.5659,12.8832 C3.1479,12.9502 2.8019,13.1042 2.4409,13.2662 C1.9119,13.5012 1.3599,13.7512 0.4629,13.7512 C0.2059,13.7512 -0.0001,13.9572 -0.0001,14.2142 C-0.0001,14.4722 0.2059,14.6782 0.4629,14.6782 C1.5589,14.6782 2.2289,14.3762 2.8159,14.1122 C3.2209,13.9352 3.5659,13.7812 3.9789,13.7812 C4.4489,13.7812 4.9269,13.9792 5.4269,14.1852 C6.0159,14.4282 6.6329,14.6782 7.3539,14.6782 C8.0599,14.6782 8.7139,14.4352 9.3469,14.2002 C9.9199,13.9872 10.4639,13.7812 10.9859,13.7812 C11.4569,13.7812 11.8249,13.9502 12.2439,14.1562 C12.7659,14.4062 13.3549,14.6852 14.2359,14.6852 C14.4939,14.6852 14.6999,14.4792 14.6999,14.2222 C14.6999,13.9722 14.4939,13.7582 14.2359,13.7582 L14.2359,13.7582 Z" id="Fill-1"></path>
            </g>
        </g>
    </g>
</svg>