<?xml version="1.0" encoding="UTF-8"?>
<svg width="15px" height="15px" viewBox="0 0 15 15" version="1.1" xmlns="http://www.w3.org/2000/svg" xmlns:xlink="http://www.w3.org/1999/xlink">
    <!-- Generator: Sketch 53.2 (72643) - https://sketchapp.com -->
    <title>main_icon_003</title>
    <desc>Created with Sketch.</desc>
    <g id="前端" stroke="none" stroke-width="1" fill="none" fill-rule="evenodd">
        <g id="镇江港通用版" transform="translate(-652.000000, -89.000000)" fill="#FF8A52">
            <g id="main_icon_003" transform="translate(652.000000, 89.000000)">
                <path d="M5.46667539,8.6277716 L7.38472104,8.6277716 L7.38472104,6.93145399 L5.46667539,6.93145399 L5.46667539,8.6277716 Z M8.02832102,6.93145399 L10.5379685,6.93145399 L10.5379685,6.3329845 L8.02832102,6.3329845 L8.02832102,5.03008699 L10.734188,5.03008699 L10.734188,4.41395775 L5.62953758,4.41395775 C5.76689123,4.12257178 5.90424488,3.81450716 6.02393878,3.51429132 L5.38033881,3.36025901 C4.97808882,4.50814311 4.25992544,5.61285892 3.45346327,6.31434365 C3.61730656,6.40068023 3.88220289,6.61455949 4.00189679,6.71757473 C4.46497482,6.27313755 4.91922297,5.69036562 5.3038132,5.03008699 L7.38472104,5.03008699 L7.38472104,6.3329845 L4.83288639,6.3329845 L4.83288639,8.6277716 L3.42795474,8.6277716 L3.42795474,9.24488194 L7.38472104,9.24488194 L7.38472104,11.207077 L8.02832102,11.207077 L8.02832102,9.24488194 L11.1285892,9.24488194 L11.1285892,8.6277716 L8.02832102,8.6277716 L8.02832102,6.93145399 Z M7.50049055,14.285761 C3.75760351,14.285761 0.714238995,11.2423965 0.714238995,7.49950945 C0.714238995,3.7585846 3.75760351,0.714238995 7.50049055,0.714238995 C11.2414154,0.714238995 14.285761,3.7585846 14.285761,7.49950945 C14.285761,11.2423965 11.2414154,14.285761 7.50049055,14.285761 L7.50049055,14.285761 Z M7.50049055,0 C3.3651645,0 0,3.3651645 0,7.49950945 C0,11.6348355 3.3651645,15 7.50049055,15 C11.6348355,15 15,11.6348355 15,7.49950945 C15,3.3651645 11.6348355,0 7.50049055,0 L7.50049055,0 Z" id="Fill-1"></path>
            </g>
        </g>
    </g>
</svg>