<?xml version="1.0" encoding="UTF-8"?>
<svg width="16px" height="16px" viewBox="0 0 16 16" version="1.1" xmlns="http://www.w3.org/2000/svg" xmlns:xlink="http://www.w3.org/1999/xlink">
    <!-- Generator: Sketch 53.2 (72643) - https://sketchapp.com -->
    <title>main_icon_001</title>
    <desc>Created with Sketch.</desc>
    <g id="前端" stroke="none" stroke-width="1" fill="none" fill-rule="evenodd">
        <g id="镇江港通用版" transform="translate(-248.000000, -88.000000)" fill="#FF8A52">
            <g id="main_icon_001" transform="translate(248.000000, 88.000000)">
                <path d="M5.24725275,10.9218392 L9.49568289,10.9218392 L9.49568289,8.53188567 L5.24725275,8.53188567 L5.24725275,10.9218392 Z M5.24725275,7.90594545 L9.49568289,7.90594545 L9.49568289,5.59447969 L5.24725275,5.59447969 L5.24725275,7.90594545 Z M4.60459184,12.1030806 L5.24725275,12.1030806 L5.24725275,11.5467984 L9.49568289,11.5467984 L9.49568289,12.0687422 L10.163854,12.0687422 L10.163854,4.96853947 L4.60459184,4.96853947 L4.60459184,12.1030806 Z M7.50098116,15.285761 C3.75784929,15.285761 0.714285714,12.2423965 0.714285714,8.49950945 C0.714285714,4.7585846 3.75784929,1.714239 7.50098116,1.714239 C11.2421507,1.714239 14.2866954,4.7585846 14.2866954,8.49950945 C14.2866954,12.2423965 11.2421507,15.285761 7.50098116,15.285761 L7.50098116,15.285761 Z M7.50098116,1 C3.36440345,1 0,4.3651645 0,8.49950945 C0,12.6348355 3.36440345,16 7.50098116,16 C11.6365777,16 15,12.6348355 15,8.49950945 C15,4.3651645 11.6365777,1 7.50098116,1 L7.50098116,1 Z" id="Fill-1"></path>
            </g>
        </g>
    </g>
</svg>