<?xml version="1.0" encoding="UTF-8"?>
<svg width="16px" height="16px" viewBox="0 0 16 16" version="1.1" xmlns="http://www.w3.org/2000/svg" xmlns:xlink="http://www.w3.org/1999/xlink">
    <!-- Generator: Sketch 53.2 (72643) - https://sketchapp.com -->
    <title>main_icon_005</title>
    <desc>Created with Sketch.</desc>
    <defs>
        <polygon id="path-1" points="0 0 15.2888 0 15.2888 15.2887 0 15.2887"></polygon>
    </defs>
    <g id="前端" stroke="none" stroke-width="1" fill="none" fill-rule="evenodd">
        <g id="镇江港通用版" transform="translate(-1056.000000, -89.000000)">
            <g id="main_icon_005" transform="translate(1056.000000, 89.000000)">
                <mask id="mask-2" fill="white">
                    <use xlink:href="#path-1"></use>
                </mask>
                <g id="Clip-2"></g>
                <path d="M5.6008,6.6109 L9.5908,6.6109 L9.5908,8.0779 L5.5048,8.0779 C5.5748,7.5619 5.6008,7.0649 5.6008,6.6109 L5.6008,6.6109 Z M5.6008,5.9919 L9.5908,5.9919 L9.5908,4.5419 L5.6008,4.5419 L5.6008,5.9919 Z M4.9468,6.5769 C4.9468,7.9649 4.8068,9.7369 3.4188,10.9599 C3.5488,11.0549 3.8108,11.2909 3.8988,11.4299 C4.7458,10.6879 5.1818,9.7019 5.3998,8.7149 L9.5908,8.7149 L9.5908,10.4619 C9.5908,10.6539 9.5208,10.7149 9.3208,10.7229 C9.1198,10.7229 8.4208,10.7319 7.6878,10.7069 C7.8008,10.8889 7.9238,11.1949 7.9668,11.3779 C8.9018,11.3779 9.4778,11.3699 9.8088,11.2559 C10.1318,11.1509 10.2628,10.9239 10.2628,10.4699 L10.2628,3.9049 L4.9468,3.9049 L4.9468,6.5769 Z M7.6448,14.5609 C3.8308,14.5609 0.7278,11.4589 0.7278,7.6439 C0.7278,3.8309 3.8308,0.7279 7.6448,0.7279 C11.4588,0.7279 14.5618,3.8309 14.5618,7.6439 C14.5618,11.4589 11.4588,14.5609 7.6448,14.5609 L7.6448,14.5609 Z M7.6448,-0.0001 C3.4288,-0.0001 -0.0002,3.4289 -0.0002,7.6439 C-0.0002,11.8589 3.4288,15.2889 7.6448,15.2889 C11.8598,15.2889 15.2888,11.8589 15.2888,7.6439 C15.2888,3.4289 11.8598,-0.0001 7.6448,-0.0001 L7.6448,-0.0001 Z" id="Fill-1" fill="#1CD1A1"></path>
            </g>
        </g>
    </g>
</svg>