<?xml version="1.0" encoding="UTF-8"?>
<svg width="15px" height="15px" viewBox="0 0 15 15" version="1.1" xmlns="http://www.w3.org/2000/svg" xmlns:xlink="http://www.w3.org/1999/xlink">
    <!-- Generator: Sketch 53.2 (72643) - https://sketchapp.com -->
    <title>main_icon_006</title>
    <desc>Created with Sketch.</desc>
    <g id="前端" stroke="none" stroke-width="1" fill="none" fill-rule="evenodd">
        <g id="镇江港通用版" transform="translate(-1258.000000, -89.000000)" fill="#1CD1A1">
            <g id="main_icon_006" transform="translate(1257.000000, 89.000000)">
                <path d="M6.46667539,8.6277716 L8.38472104,8.6277716 L8.38472104,6.93145399 L6.46667539,6.93145399 L6.46667539,8.6277716 Z M9.02832102,6.93145399 L11.5379685,6.93145399 L11.5379685,6.3329845 L9.02832102,6.3329845 L9.02832102,5.03008699 L11.734188,5.03008699 L11.734188,4.41395775 L6.62953758,4.41395775 C6.76689123,4.12257178 6.90424488,3.81450716 7.02393878,3.51429132 L6.38033881,3.36025901 C5.97808882,4.50814311 5.25992544,5.61285892 4.45346327,6.31434365 C4.61730656,6.40068023 4.88220289,6.61455949 5.00189679,6.71757473 C5.46497482,6.27313755 5.91922297,5.69036562 6.3038132,5.03008699 L8.38472104,5.03008699 L8.38472104,6.3329845 L5.83288639,6.3329845 L5.83288639,8.6277716 L4.42795474,8.6277716 L4.42795474,9.24488194 L8.38472104,9.24488194 L8.38472104,11.207077 L9.02832102,11.207077 L9.02832102,9.24488194 L12.1285892,9.24488194 L12.1285892,8.6277716 L9.02832102,8.6277716 L9.02832102,6.93145399 Z M8.50049055,14.285761 C4.75760351,14.285761 1.714239,11.2423965 1.714239,7.49950945 C1.714239,3.7585846 4.75760351,0.714238995 8.50049055,0.714238995 C12.2414154,0.714238995 15.285761,3.7585846 15.285761,7.49950945 C15.285761,11.2423965 12.2414154,14.285761 8.50049055,14.285761 L8.50049055,14.285761 Z M8.50049055,0 C4.3651645,0 1,3.3651645 1,7.49950945 C1,11.6348355 4.3651645,15 8.50049055,15 C12.6348355,15 16,11.6348355 16,7.49950945 C16,3.3651645 12.6348355,0 8.50049055,0 L8.50049055,0 Z" id="Fill-1-Copy"></path>
            </g>
        </g>
    </g>
</svg>