<?xml version="1.0" encoding="UTF-8"?>
<svg width="15px" height="15px" viewBox="0 0 15 15" version="1.1" xmlns="http://www.w3.org/2000/svg" xmlns:xlink="http://www.w3.org/1999/xlink">
    <!-- Generator: Sketch 53.2 (72643) - https://sketchapp.com -->
    <title>main_icon_004</title>
    <desc>Created with Sketch.</desc>
    <g id="前端" stroke="none" stroke-width="1" fill="none" fill-rule="evenodd">
        <g id="镇江港通用版" transform="translate(-854.000000, -89.000000)" fill="#1CD1A1">
            <g id="main_icon_004" transform="translate(854.000000, 89.000000)">
                <path d="M5.24725275,9.92183923 L9.49568289,9.92183923 L9.49568289,7.53188567 L5.24725275,7.53188567 L5.24725275,9.92183923 Z M5.24725275,6.90594545 L9.49568289,6.90594545 L9.49568289,4.59447969 L5.24725275,4.59447969 L5.24725275,6.90594545 Z M4.60459184,11.1030806 L5.24725275,11.1030806 L5.24725275,10.5467984 L9.49568289,10.5467984 L9.49568289,11.0687422 L10.163854,11.0687422 L10.163854,3.96853947 L4.60459184,3.96853947 L4.60459184,11.1030806 Z M7.50098116,14.285761 C3.75784929,14.285761 0.714285714,11.2423965 0.714285714,7.49950945 C0.714285714,3.7585846 3.75784929,0.714238995 7.50098116,0.714238995 C11.2421507,0.714238995 14.2866954,3.7585846 14.2866954,7.49950945 C14.2866954,11.2423965 11.2421507,14.285761 7.50098116,14.285761 L7.50098116,14.285761 Z M7.50098116,0 C3.36440345,0 0,3.3651645 0,7.49950945 C0,11.6348355 3.36440345,15 7.50098116,15 C11.6365777,15 15,11.6348355 15,7.49950945 C15,3.3651645 11.6365777,0 7.50098116,0 L7.50098116,0 Z" id="Fill-1-Copy-2"></path>
            </g>
        </g>
    </g>
</svg>