<?xml version="1.0" encoding="UTF-8"?>
<svg width="16px" height="16px" viewBox="0 0 16 16" version="1.1" xmlns="http://www.w3.org/2000/svg" xmlns:xlink="http://www.w3.org/1999/xlink">
    <!-- Generator: Sketch 53.2 (72643) - https://sketchapp.com -->
    <title>main_icon_007</title>
    <desc>Created with Sketch.</desc>
    <g id="前端" stroke="none" stroke-width="1" fill="none" fill-rule="evenodd">
        <g id="镇江港通用版" transform="translate(-1382.000000, -236.000000)" fill="#666666">
            <g id="main_icon_007" transform="translate(1382.000000, 236.000000)">
                <path d="M8.66596973,5.20279177 L9.16387368,4.70488782 L11.256247,6.85168491 L10.7590785,7.35032431 L8.66596973,5.20279177 Z M10.5104943,3.70393173 C10.3303075,3.70393173 10.1530625,3.77747736 10.0258285,3.90397585 L3.92668901,10.0031154 L3.73326399,12.26685 L5.89109292,12.1227006 L10.792174,7.27898505 L12.0961382,5.97649185 C12.2233721,5.84778699 12.2969177,5.67127747 12.2969177,5.49109066 C12.2969177,5.3101684 12.2233721,5.13292342 12.0946672,5.00495401 L10.9958955,3.90397585 C10.8671906,3.77747736 10.6906811,3.70393173 10.5104943,3.70393173 L10.5104943,3.70393173 Z M3.29787383,13.0001 C3.21991546,12.9993645 3.14269254,12.9677399 3.08679786,12.9118452 C3.02649044,12.8508024 2.99486581,12.7662249 3.00074946,12.679441 L3.2022645,9.67510184 L9.52718912,3.40827827 C9.78974704,3.1449849 10.1383533,3.0001 10.5097588,3.0001 C10.8804288,3.0001 11.2290351,3.14424944 11.491593,3.40754282 L12.5925712,4.50852098 C12.8551291,4.77107889 13.0007495,5.12042066 13.0007495,5.49109066 C13.0007495,5.85587701 12.8514518,6.21404425 12.5925712,6.47292489 L6.218371,12.8471251 L3.29787383,13.0001 Z" id="Fill-1"></path>
            </g>
        </g>
    </g>
</svg>