<?xml version="1.0" encoding="UTF-8"?>
<svg width="410px" height="82px" viewBox="0 0 410 82" version="1.1" xmlns="http://www.w3.org/2000/svg" xmlns:xlink="http://www.w3.org/1999/xlink">
    <!-- Generator: Sketch 53.2 (72643) - https://sketchapp.com -->
    <title>title</title>
    <desc>Created with Sketch.</desc>
    <defs>
        <polygon id="path-1" points="0 0 410 0 410 82 0 82"></polygon>
    </defs>
    <g id="登录页" stroke="none" stroke-width="1" fill="none" fill-rule="evenodd">
        <g transform="translate(-453.000000, -214.000000)" id="title">
            <g transform="translate(453.000000, 214.000000)">
                <mask id="mask-2" fill="white">
                    <use xlink:href="#path-1"></use>
                </mask>
                <g id="Clip-2"></g>
                <path d="M369.454666,9.942515 L366.169008,0.297929021 L361.69004,1.78641936 L364.974539,11.4310053 L369.454666,9.942515 Z M376.323731,9.58453827 L373.098318,0 L368.618191,1.48849034 L371.90269,11.1330763 L376.323731,9.58453827 Z M6.92930971,18.2810633 L11.3491921,19.7095059 L14.5143608,10.0649199 L10.0353922,8.63647731 L6.92930971,18.2810633 Z M3.10608248,8.398596 L0,18.1020749 L4.48012717,19.5305176 L7.58620966,9.82703863 L3.10608248,8.398596 Z M125.627771,19.2533743 C126.298574,17.9242413 126.879009,16.6655489 127.371394,15.4761424 L141.140805,14.9518797 L141.520811,24.8701447 L126.242963,25.4509908 L126.394733,29.407211 L141.671423,28.8275197 L142.119783,40.5483707 L122.169488,41.3070504 L122.321259,45.2632707 L164.73591,43.6500658 L164.584139,39.6938456 L146.090146,40.3970966 L145.641786,28.6762456 L160.165415,28.1231138 L160.014803,24.1657388 L145.490016,24.7188706 L145.11001,14.8006057 L161.946112,14.1608666 L161.793183,10.2034916 L144.959398,10.8432306 L144.774029,6.03479482 L140.804824,6.18606885 L140.989034,10.9945047 L128.826538,11.4575649 C129.125445,10.4760158 129.338618,9.69885987 129.467218,9.1260971 C129.596976,8.55217957 129.659538,8.2334648 129.657221,8.16533374 L125.80503,7.45977316 C125.429658,9.04641841 125.016055,10.4829444 124.560743,11.7705058 C124.10659,13.0580673 123.508776,14.5199981 122.766143,16.1528339 C122.02351,17.7856697 121.081606,19.460077 119.939272,21.1772105 L123.243467,23.3574043 C124.1622,21.9520569 124.956968,20.583662 125.627771,19.2533743 L125.627771,19.2533743 Z M110.2723,13.7151278 L111.573356,39.7977743 C111.581466,39.9640603 111.530489,40.1014772 111.416951,40.2077154 C111.30573,40.3139537 111.165545,40.3705371 110.998713,40.3774657 L79.8058134,41.9236942 L78.4769523,15.2913802 L110.2723,13.7151278 Z M76.0347211,46.0762243 L111.239692,44.3313764 C112.514102,44.2690192 113.56491,43.7817089 114.393276,42.8706004 C115.221642,41.9594919 115.603964,40.869395 115.541402,39.6014645 L113.972721,8.16071469 L110.004674,8.35817927 L110.074187,9.76006234 L74.3119517,11.5326245 L76.0347211,46.0762243 Z M172.239862,42.0449444 C172.736882,41.079562 173.251279,39.8555125 173.785373,38.3716412 C174.318307,36.8866152 174.806059,35.221446 175.246309,33.3715146 C175.686559,31.522738 175.884672,29.6797352 175.839488,27.8425063 L175.737536,23.6818929 L210.276339,22.8377606 L210.17902,18.8780761 L200.176068,19.1240408 L202.602079,13.5488419 L198.993184,11.9829824 L195.80021,19.230279 L182.327389,19.5593866 L184.162538,18.512016 L180.589559,12.331721 L177.166032,14.2705691 L180.216504,19.6610058 L171.668695,19.8203632 L171.867966,27.9060183 C171.906199,29.4799611 171.726623,31.0839278 171.331556,32.7179184 C170.935331,34.351909 170.49508,35.836935 170.007329,37.1718418 C169.520737,38.5055938 168.8453,40.0229532 167.982177,41.719301 L171.450887,43.644292 C171.481009,43.5426728 171.744001,43.009172 172.239862,42.0449444 L172.239862,42.0449444 Z M36.9242651,35.8531017 L33.3895178,34.0609085 L26.1613012,48.510466 L29.7458664,50.2506948 L36.9242651,35.8531017 Z M36.145717,28.0665304 L27.5121748,22.0132594 L25.2390924,25.215419 L33.8726347,31.26869 L36.145717,28.0665304 Z M45.7420174,28.034197 C46.090742,27.4348747 46.4139785,26.8136119 46.7105683,26.168099 L59.5114281,25.3897883 L61.9385981,28.0145661 L59.228741,28.1796973 L59.2739246,28.9199008 L44.5660853,29.8148426 C44.9993844,29.2270679 45.3921341,28.6335194 45.7420174,28.034197 L45.7420174,28.034197 Z M57.6565836,17.3168356 L57.9137826,21.5190206 L46.9700843,22.1864739 L46.7128854,17.9819795 L57.6565836,17.3168356 Z M59.1569107,36.0574949 L45.7536029,36.872758 L45.561283,33.721408 L59.5160623,32.871502 L59.6747842,35.4731845 C59.6979553,35.8415541 59.5253308,36.0355544 59.1569107,36.0574949 L59.1569107,36.0574949 Z M35.9684583,26.8216952 L42.0925732,26.4498613 C41.5434187,27.3528865 40.9235925,28.2097211 40.234253,29.02152 C39.5449136,29.8333188 38.9088676,30.5573556 38.3272736,31.1947851 C37.7445211,31.8333694 37.2475016,32.348394 36.8350565,32.7398589 C36.4214528,33.1336333 36.1990105,33.3310979 36.1654124,33.3334074 L38.8648426,36.2826738 C38.928563,36.2122332 39.2135672,35.9350899 39.7221723,35.4523987 C40.2296188,34.9697075 40.8448108,34.3207303 41.5677484,33.506622 L42.5455677,49.4723841 L64.9334595,48.1109178 C66.1707948,48.0358582 67.2065418,47.5277622 68.0395419,46.5900941 C68.8713835,45.6535808 69.2502306,44.5657934 69.1749246,43.3325058 L68.9883974,40.2804655 L65.0226681,40.5218111 L65.2103538,43.5738514 C65.2323663,43.9399115 65.0585833,44.1350666 64.6913217,44.1581618 L46.2680007,45.2782826 L45.9968992,40.825514 L59.3978899,40.0102508 C60.6363838,39.9351912 61.6732893,39.4363333 62.5062895,38.5102128 C63.3392896,37.5852472 63.7181366,36.4870669 63.639355,35.2145174 L63.2859961,29.4383896 L67.2262372,33.7179437 L70.1353656,31.0308087 L64.5812591,25.0803116 L69.399684,24.7870017 L69.1575463,20.8354005 L61.8795119,21.277675 L61.6211544,17.07549 L66.842756,16.75793 L66.6006182,12.8051741 L61.3801753,13.1227341 L61.1565744,9.47137143 L57.1896865,9.71156227 L57.4144459,13.3640797 L46.4707476,14.0303783 L46.2471468,10.3778609 L42.282576,10.6180517 L42.5061769,14.2705691 L37.2845753,14.5881291 L37.526713,18.5408851 L42.7483146,18.2244799 L43.0055135,22.4266648 L35.7263206,22.8689393 L35.9684583,26.8216952 Z M35.5015612,17.5604908 L26.868019,11.506065 L24.5949366,14.7082246 L33.2296373,20.7614956 L35.5015612,17.5604908 Z M268.741593,10.4956468 L303.134418,11.1157549 L303.042892,16.1770839 L307.014415,16.249834 L307.19399,6.37660486 L303.222468,6.30500951 L303.20509,7.15722508 L288.674509,6.89393897 L286.684114,2.89614723 L283.131988,4.6375308 L284.200175,6.81310551 L264.840743,6.46321213 L264.676228,15.4853805 L268.648909,15.5569758 L268.741593,10.4956468 Z M283.938342,37.7965689 C283.931391,38.1949624 283.743705,38.3901174 283.374126,38.3831888 L277.391355,38.2746411 L277.319525,42.2343256 L283.303454,42.3428734 C284.575546,42.3648139 285.656477,41.9502538 286.545088,41.0968834 C287.43254,40.2435131 287.886693,39.1822853 287.911023,37.9143548 L288.008341,32.5008228 L307.61918,32.8553353 L307.689851,28.8956507 L288.080171,28.5411383 L288.112611,26.7373975 L299.661074,19.5258985 L299.754917,14.3629502 L271.999446,13.8629376 L271.927616,17.8214674 L294.302763,18.2256346 L284.18048,24.5110132 L284.108649,28.4695429 L263.692616,28.1011733 L263.621944,32.0608579 L284.03566,32.4292275 L283.938342,37.7965689 Z M168.807067,11.8686608 L211.641115,10.8212901 L211.543797,6.86160559 L192.38827,7.33043963 L189.622802,3.28645734 L186.356839,5.47242492 L187.713505,7.44476123 L168.709749,7.90897622 L168.807067,11.8686608 Z M315.478808,15.8826192 C316.260832,15.4588209 317.016209,15.0361774 317.746097,14.6100697 L316.024487,43.4318155 L319.991375,43.6673873 L321.900671,11.6931367 C323.520329,10.4494562 324.766933,9.36975223 325.646275,8.45056037 C326.522142,7.5313685 326.998307,7.04059395 327.068979,6.97823672 L324.099606,4.39156615 C322.881966,5.65834187 321.719937,6.7530578 320.610042,7.67455919 C319.500148,8.59606058 318.164335,9.57991921 316.604922,10.6261351 C315.043192,11.6711962 313.296093,12.6377333 311.362467,13.5269014 L313.013406,17.090502 C313.87537,16.7059657 314.697943,16.3041079 315.478808,15.8826192 L315.478808,15.8826192 Z M324.448331,33.9881584 C327.788441,32.6139897 330.957085,31.0111777 333.953105,29.1797226 L333.052909,44.2909597 L349.718704,45.2805921 C350.957198,45.3533422 352.04508,44.9838179 352.984667,44.1685547 C353.923095,43.3532916 354.430542,42.3116948 354.507007,41.0449191 L354.865,35.0401481 L350.89927,34.8045763 L350.541277,40.8093473 C350.519265,41.1765621 350.323469,41.3486219 349.957366,41.3278361 L337.253825,40.5726207 L338.091459,26.5630282 C340.509361,24.8990137 342.69671,23.246547 344.660459,21.6056278 C346.62189,19.9635539 348.30411,18.4831469 349.711753,17.1597878 C351.11592,15.8364286 352.215387,14.7463318 353.005521,13.8894971 C353.794496,13.0338173 354.242856,12.5580547 354.350602,12.4645188 L351.330252,9.87322918 C351.327935,9.90787209 351.022077,10.2566107 350.411519,10.9240641 C349.799803,11.5915175 348.934363,12.4610545 347.811725,13.5315204 C346.690245,14.6031411 345.331261,15.8295001 343.73825,17.2071331 C342.14408,18.5847661 340.347163,20.0016611 338.345182,21.4566633 L339.34038,5.64679423 L335.374651,5.41122245 L334.243902,24.326251 C332.530401,25.4636932 330.73696,26.5376234 328.86242,27.5468868 C326.989039,28.5584597 325.019498,29.4868897 322.953796,30.3344862 L324.448331,33.9881584 Z M244.066716,41.0125857 C244.548674,40.5749302 245.156915,39.9790722 245.89028,39.2203925 C246.621327,38.4640223 247.445059,37.5563781 248.360316,36.4974598 C249.275574,35.4373868 250.212844,34.2549088 251.17676,32.9430973 L257.220935,41.4733364 L260.424336,39.1961425 L253.568015,29.4176039 C254.726569,27.5064701 255.75884,25.4348241 256.665988,23.2061302 C257.574294,20.9774364 258.18601,18.658671 258.503454,16.2509888 L258.553272,16.0997148 L258.525466,12.0395658 L259.329503,12.0349467 L259.302856,8.07410742 L247.986103,8.15263134 C248.21318,6.89509373 248.36495,5.86273503 248.443732,5.05209095 C248.521355,4.24144687 248.560746,3.80494622 248.559587,3.73796992 L244.636725,3.51394578 C244.478003,5.0855791 244.278731,6.48284311 244.035435,7.70458305 C243.792139,8.92516822 243.466585,10.2808607 243.058774,11.7705058 C242.648646,13.2613057 242.098333,14.7105341 241.403201,16.1193457 L244.935631,17.8491817 C245.399053,16.8768707 245.803388,15.912643 246.148637,14.9576535 C246.493886,14.0038187 246.797427,13.0569126 247.058102,12.1192445 L254.551627,12.0672801 L254.579432,15.8664525 C254.322234,17.6678838 253.881983,19.3954102 253.257523,21.047877 C252.631904,22.7026533 251.886954,24.2996914 251.026148,25.8366818 L246.710536,19.7002678 L243.456158,21.9786165 L248.788981,29.4822707 C247.826223,30.8668323 246.863465,32.1243699 245.89839,33.252574 C244.933314,34.380778 244.067875,35.3496247 243.304388,36.1556498 C242.537425,36.9628296 241.904855,37.5944853 241.406677,38.0494622 C240.906182,38.5032843 240.655934,38.7469394 240.655934,38.7815823 L243.242984,41.7712654 C243.309022,41.7031343 243.582441,41.4502411 244.066716,41.0125857 L244.066716,41.0125857 Z M232.081478,31.5215833 C231.197502,32.2964297 230.02157,33.1232404 228.553682,34.0031703 L223.458363,31.9326791 L224.797651,29.1658654 L233.950225,29.1035082 L233.954859,29.7547949 C233.588756,30.1578074 232.964296,30.7478916 232.081478,31.5215833 L232.081478,31.5215833 Z M240.560933,25.0964783 L226.732436,25.1923237 L227.225979,24.1368697 L223.64489,22.4578434 L222.305602,25.2223476 L216.070266,25.2673833 L216.098071,29.2259131 L220.421794,29.197044 L218.091942,33.975456 L223.891662,36.340412 C222.788719,36.8150198 221.61047,37.2492109 220.355756,37.6429853 C219.101042,38.035605 217.721205,38.3704864 216.213927,38.6487845 L216.993633,42.5033855 C219.43934,42.0183848 221.638275,41.4109791 223.595072,40.678859 C225.551869,39.9455841 227.29781,39.1903686 228.835211,38.4120579 L238.619197,42.4040759 L240.15428,38.7353918 L232.990943,35.8265421 C234.492428,34.7468381 235.609274,33.8033962 236.34148,32.9962164 C237.071369,32.1890366 237.472228,31.752536 237.539425,31.6844049 L237.936808,31.180928 L237.924064,29.0746391 L240.588738,29.0573176 L240.560933,25.0964783 Z M215.875629,19.1021002 L218.162614,22.3446766 C220.09624,20.9612697 221.604677,19.5813272 222.684449,18.2025394 C223.764221,16.8260611 224.535818,15.717488 224.999239,14.8779748 L226.508835,14.8687367 L226.559811,22.1368191 L230.532492,22.1091048 L230.481515,14.8410224 L232.946918,14.8237009 L231.597203,16.035048 L237.220822,22.1125691 L240.118365,19.4854818 L235.812021,14.8040699 L240.639714,14.7705818 L240.613068,10.8108973 L235.985804,10.8420759 L239.576162,6.45628355 L236.54191,3.97123218 L231.742022,9.82011005 L232.995577,10.8640164 L230.45371,10.8801831 L230.403892,3.61325545 L226.431212,3.63981501 L226.481029,10.9078974 L223.915992,10.9263736 L225.16723,9.86514583 L220.297828,4.08439902 L217.247356,6.61102188 L220.950094,10.9460046 L216.271854,10.978338 L216.300818,14.9380225 L220.27234,14.911463 C219.80776,15.5488925 219.207629,16.2302031 218.476582,16.9542399 C217.744376,17.6771219 216.877778,18.3930754 215.875629,19.1021002 L215.875629,19.1021002 Z M409.250986,70.5202611 C405.679165,70.213094 402.106185,69.9047721 398.588816,69.6010693 C396.827815,69.4578786 395.091143,69.2869736 393.356788,69.1680329 C391.623592,69.0467827 389.910091,68.9266873 388.225554,68.8100562 C384.857638,68.5710201 381.605578,68.3239007 378.521508,68.0837098 C375.427011,67.8804714 372.505138,67.6679949 369.81266,67.438197 C366.195655,67.2361133 373.544361,67.0109344 369.99687,66.4959098 C368.184892,66.3954454 365.468083,66.2464809 362.748958,66.0963616 C360.022881,65.98204 357.297962,65.8665636 355.479033,65.7903492 C351.914163,65.1644673 359.267504,64.9993361 355.693366,64.3734542 C353.905717,64.0743705 349.35376,63.7983819 344.786741,63.6482627 C340.219722,63.4935243 335.649228,63.3561075 333.836091,63.1447857 C328.357291,62.826071 330.194757,62.762559 334.780313,62.8168328 C337.07309,62.8457019 340.051732,62.9045949 343.14507,62.977345 C344.690581,63.0177617 346.265055,63.0593332 347.796663,63.0985952 C349.325954,63.1597976 350.81122,63.2210001 352.182948,63.2764288 C348.574053,62.80644 359.499214,63.5847507 359.550191,63.2695002 C359.646351,62.6540112 359.773792,61.9796292 345.11577,60.9507348 C341.452423,60.6828296 345.191076,60.3202338 345.230467,60.0061381 C300.947069,58.4887787 252.941237,59.1181249 209.034369,61.4034021 C190.732696,62.3168202 170.515934,63.2256192 150.381429,64.354978 C130.249242,65.478563 110.20047,66.8157794 92.2753269,68.4520794 C81.4173616,69.4232357 63.0925176,70.3089394 56.0994875,71.7454654 L66.962087,70.808952 C56.2396725,72.1946684 45.2368879,72.6969906 34.4484358,73.8933257 C34.5550228,74.2039572 34.6071577,74.3586955 31.0469222,74.8633272 C38.2623946,74.1519928 49.0520053,73.0018482 56.3439423,72.5237761 L56.4910786,72.9903006 C49.30457,73.7801589 38.3689816,74.4626242 31.2079611,75.328697 C31.2624132,75.48459 31.3713172,75.7952215 31.4246107,75.9499598 C31.4779041,76.1023886 27.8759607,76.4580558 24.27981,76.8183421 C27.8782778,76.4672939 35.089116,75.7651976 38.6875838,75.4141495 C38.7397188,75.5700426 38.8451472,75.880674 38.8972821,76.0354123 C38.9482584,76.1889959 35.3521077,76.5331154 31.7478472,76.8818541 C31.8555927,77.1913307 28.3695046,77.8530103 32.0177902,77.6578552 C35.6197336,77.3160452 39.2135672,76.9730804 42.8108765,76.6312703 C28.4563961,78.1324631 21.5861726,79.6706083 21.7587971,80.1290494 C25.284276,79.6094058 25.4499492,80.072466 28.973111,79.5632152 C23.6819963,80.3242045 18.4210039,81.1544796 16.3135947,81.6256231 C15.2824819,81.8588854 14.9569283,82.0066951 15.8397462,81.9997665 C16.665795,81.9997665 18.7002153,81.8519568 22.2697193,81.5240039 C53.5529864,78.460416 85.341383,75.8783645 117.278074,73.6554444 C149.22751,71.4348339 181.392436,69.6564979 213.610656,68.4105079 C229.722663,67.819269 245.845096,67.3238754 261.958261,67.0432678 C265.985394,66.9531962 270.012526,66.9312557 274.039659,66.871208 C278.065633,66.8157794 282.091607,66.7649698 286.112947,66.7615055 L298.178125,66.7176244 L310.225925,66.7811364 C326.273053,66.9416486 342.294692,67.2234109 358.183097,67.9359001 C362.165047,68.0698527 366.122666,68.2892578 370.080285,68.5017343 C374.033271,68.7269132 378.005951,68.883961 381.931131,69.1807353 C385.864421,69.4497952 389.796552,69.7188552 393.724049,69.9879151 C397.628375,70.320487 401.530384,70.6519042 405.4266,70.9844761 C409.008848,71.2154288 409.950753,71.1888693 409.998253,71.0549167 C410.043437,70.9198094 409.196534,70.6761542 409.250986,70.5202611 L409.250986,70.5202611 Z" id="Fill-1" fill="#FFFFFF" mask="url(#mask-2)"></path>
            </g>
        </g>
    </g>
</svg>