<?xml version="1.0" encoding="UTF-8"?>
<svg width="16px" height="16px" viewBox="0 0 16 16" version="1.1" xmlns="http://www.w3.org/2000/svg" xmlns:xlink="http://www.w3.org/1999/xlink">
    <!-- Generator: Sketch 53.2 (72643) - https://sketchapp.com -->
    <title>top_icon_001</title>
    <desc>Created with Sketch.</desc>
    <defs>
        <polygon id="path-1" points="8.75e-05 -0.00035 14 -0.00035 14 13.999475 8.75e-05 13.999475"></polygon>
    </defs>
    <g id="前端" stroke="none" stroke-width="1" fill="none" fill-rule="evenodd">
        <g id="镇江港通用版" transform="translate(-1027.000000, -17.000000)">
            <g id="top_icon_001" transform="translate(1028.000000, 18.000000)">
                <mask id="mask-2" fill="white">
                    <use xlink:href="#path-1"></use>
                </mask>
                <g id="Clip-2"></g>
                <path d="M1.6232125,6.41585 C1.6232125,3.77685 3.7669625,1.62785 6.3998375,1.62785 C9.0335875,1.62785 11.1764625,3.77685 11.1764625,6.41585 C11.1764625,9.055725 9.0335875,11.20385 6.3998375,11.20385 C3.7669625,11.20385 1.6232125,9.055725 1.6232125,6.41585 Z M13.7620875,12.609975 L11.4704625,10.313975 C12.3017125,9.232475 12.8004625,7.881475 12.8004625,6.4141 C12.8004625,2.876475 9.9287125,-0.000525 6.3998375,-0.000525 C2.8718375,-0.000525 8.75e-05,2.878225 8.75e-05,6.41585 C8.75e-05,9.953475 2.8700875,12.830475 6.3998375,12.830475 C7.8803375,12.830475 9.2427125,12.3186 10.3277125,11.468975 L12.6140875,13.761475 C12.7715875,13.918975 12.9798375,13.999475 13.1880875,13.999475 C13.3963375,13.999475 13.6045875,13.920725 13.7620875,13.761475 C14.0797125,13.442975 14.0797125,12.9276 13.7620875,12.609975 L13.7620875,12.609975 Z" id="Fill-1" fill="#B4D4F5" mask="url(#mask-2)"></path>
            </g>
        </g>
    </g>
</svg>