<?xml version="1.0" encoding="UTF-8"?>
<svg width="16px" height="16px" viewBox="0 0 16 16" version="1.1" xmlns="http://www.w3.org/2000/svg" xmlns:xlink="http://www.w3.org/1999/xlink">
    <!-- Generator: Sketch 53.2 (72643) - https://sketchapp.com -->
    <title>top_icon_004</title>
    <desc>Created with Sketch.</desc>
    <g id="前端" stroke="none" stroke-width="1" fill="none" fill-rule="evenodd">
        <g id="镇江港通用版" transform="translate(-1406.000000, -17.000000)" stroke="#FFFFFF">
            <g id="top_icon_004" transform="translate(1406.000000, 17.000000)">
                <path d="M8.6602,14.8659 L7.1892,14.8659 C6.7892,14.8659 6.4542,14.5979 6.3212,14.2639 L5.5182,12.5939 C5.4522,12.4599 5.3182,12.3929 5.1842,12.3929 L3.3812,12.5939 C2.9792,12.6609 2.6452,12.4599 2.4442,12.1259 L1.7102,10.8559 C1.5092,10.5219 1.5092,10.0539 1.7762,9.7199 L2.7792,8.3169 C2.8462,8.2499 2.8462,8.0489 2.7792,7.9159 L1.7102,6.5119 C1.4422,6.1779 1.4422,5.7769 1.6422,5.4429 L2.3782,4.1729 C2.5782,3.8389 2.9792,3.6379 3.3812,3.7049 L5.1842,3.9059 C5.3182,3.9059 5.4522,3.8389 5.5182,3.7049 L6.1872,2.1009 C6.3212,1.6999 6.6552,1.4999 7.0562,1.4999 L8.5262,1.4999 C8.9272,1.4999 9.2622,1.7669 9.3942,2.1009 L10.1972,3.7719 C10.2642,3.9059 10.3972,3.9729 10.5312,3.9729 L12.3352,3.7719 C12.7362,3.7719 13.0702,3.9059 13.2712,4.2399 L14.0062,5.5099 C14.2072,5.8439 14.2072,6.3119 13.9392,6.6459 L12.9362,8.0489 C12.8702,8.1829 12.8702,8.3169 12.9362,8.4499 L14.0062,9.8529 C14.2732,10.1879 14.2732,10.5889 14.0732,10.9229 L13.3382,12.1929 C13.1382,12.5269 12.7362,12.7269 12.3352,12.6609 L10.5312,12.4599 C10.3972,12.4599 10.2642,12.5269 10.1972,12.6609 L9.5282,14.2639 C9.3942,14.6649 9.0602,14.8659 8.6602,14.8659 Z" id="Stroke-1"></path>
                <path d="M7.8584,10.1881 C6.5874,10.1881 5.5184,9.1181 5.5184,7.8491 C5.5184,6.5791 6.5874,5.5101 7.8584,5.5101 C9.1284,5.5101 10.1974,6.5791 10.1974,7.8491 C10.1974,9.1181 9.1284,10.1881 7.8584,10.1881 Z" id="Stroke-3"></path>
            </g>
        </g>
    </g>
</svg>